<svg id="Ebene_1" data-name="Ebene 1" xmlns="http://www.w3.org/2000/svg" viewBox="0 0 200 75"><defs><style>.cls-1{fill:#fff;}.cls-2{fill:#f59c00;}</style></defs><g id="text_top" data-name="text top"><path class="cls-1" d="M20,39.69a7.24,7.24,0,0,1-.48,2.76,6,6,0,0,1-1.34,2.06,5.85,5.85,0,0,1-2,1.27,7.65,7.65,0,0,1-5,0,5.71,5.71,0,0,1-2-1.25,5.93,5.93,0,0,1-1.34-2,7.36,7.36,0,0,1-.5-2.75V25.53a7,7,0,0,1,.48-2.71,5.53,5.53,0,0,1,1.36-2,5.86,5.86,0,0,1,2.06-1.23,8,8,0,0,1,2.57-.4,6.94,6.94,0,0,1,2.39.45A6,6,0,0,1,18.2,21a6.24,6.24,0,0,1,1.41,2.13A7.87,7.87,0,0,1,20.14,26a16.21,16.21,0,0,1-.53,4.44A9.06,9.06,0,0,1,18,33.63,11.88,11.88,0,0,1,15.13,36q-1.76,1.11-4.17,2.4v1.27a2.75,2.75,0,0,0,.72,2,2.54,2.54,0,0,0,1.89.69,2.54,2.54,0,0,0,1.85-.72,2.71,2.71,0,0,0,.72-2v-.44L19.92,38ZM16.45,26.2a3.71,3.71,0,0,0-.82-2.73,2.73,2.73,0,0,0-1.91-.77,2.81,2.81,0,0,0-1.94.72A2.58,2.58,0,0,0,11,25.48v8.8a17.39,17.39,0,0,0,2.77-1.61A6.46,6.46,0,0,0,15.42,31a5.87,5.87,0,0,0,.81-2.09,14.52,14.52,0,0,0,.22-2.63"/><path class="cls-1" d="M27.44,46.81A6.71,6.71,0,0,1,27,49.35a6.9,6.9,0,0,1-1.29,2.08,5.89,5.89,0,0,1-2,1.41,6.76,6.76,0,0,1-2.66.53,6,6,0,0,1-2.61-.5l1-3.81a2.42,2.42,0,0,0,1.63.55,2.79,2.79,0,0,0,1.94-.72,2.65,2.65,0,0,0,.79-2.06V19.52h3.76Zm0-33.71a2.48,2.48,0,0,1-.55,1.67,1.8,1.8,0,0,1-2.52.31,1.77,1.77,0,0,1-.3-.31,2.46,2.46,0,0,1-.55-1.65,2.35,2.35,0,0,1,.55-1.6,1.7,1.7,0,0,1,1.41-.7,1.76,1.76,0,0,1,1.41.67,2.37,2.37,0,0,1,.55,1.63"/><polygon class="cls-1" points="50.37 19.45 45.8 45.54 42.35 45.56 39.81 30.01 37.27 45.56 33.82 45.56 29.29 19.49 33.46 19.49 35.49 35.95 38.32 19.47 41.53 19.47 44.43 35.93 46.4 19.47 50.37 19.45"/><polygon class="cls-1" points="70.4 45.49 60.2 45.51 60.12 12.09 63.88 12.09 63.93 41.75 70.38 41.75 70.4 45.49"/><path class="cls-1" d="M84.68,39.57a7.24,7.24,0,0,1-.48,2.76,6,6,0,0,1-1.34,2.06,5.85,5.85,0,0,1-2,1.27,7.65,7.65,0,0,1-5,0,5.71,5.71,0,0,1-2-1.25,5.93,5.93,0,0,1-1.34-2,7,7,0,0,1-.5-2.75V25.41a7,7,0,0,1,.48-2.71,5.53,5.53,0,0,1,1.36-2,5.86,5.86,0,0,1,2.06-1.23,8,8,0,0,1,2.57-.4,6.94,6.94,0,0,1,2.39.45,5.91,5.91,0,0,1,2.06,1.32A6.13,6.13,0,0,1,84.3,23a7.7,7.7,0,0,1,.52,2.92,15.83,15.83,0,0,1-.52,4.44,9.23,9.23,0,0,1-1.63,3.16,11.88,11.88,0,0,1-2.85,2.39Q78.07,37,75.65,38.3v1.27a2.75,2.75,0,0,0,.72,2,2.82,2.82,0,0,0,3.73,0,2.64,2.64,0,0,0,.72-2v-.43l3.79-1.25ZM81.16,26.08a3.71,3.71,0,0,0-.82-2.73,2.73,2.73,0,0,0-1.91-.77,2.81,2.81,0,0,0-1.94.72,2.58,2.58,0,0,0-.79,2.06v8.8a17.39,17.39,0,0,0,2.77-1.61,6.46,6.46,0,0,0,1.66-1.72,5.87,5.87,0,0,0,.81-2.09,14.52,14.52,0,0,0,.22-2.63"/><path class="cls-1" d="M100.37,39.55a6.78,6.78,0,0,1-.5,2.7,5.87,5.87,0,0,1-1.41,2.06,6.54,6.54,0,0,1-2.06,1.3,7,7,0,0,1-2.4.45,7.19,7.19,0,0,1-2.56-.45,6.05,6.05,0,0,1-2.09-1.27,5.62,5.62,0,0,1-1.36-2,7.17,7.17,0,0,1-.51-2.71V25.39A6.83,6.83,0,0,1,88,22.75a5.73,5.73,0,0,1,3.43-3.28A7.44,7.44,0,0,1,94,19a7,7,0,0,1,2.4.43,6.06,6.06,0,0,1,2.06,1.25,5.9,5.9,0,0,1,1.41,2,6.44,6.44,0,0,1,.53,2.63ZM96.59,25.34a2.59,2.59,0,0,0-.82-2.06,3,3,0,0,0-3.86,0,2.65,2.65,0,0,0-.79,2.06V39.55a2.57,2.57,0,0,0,.79,2,3,3,0,0,0,3.86,0,2.53,2.53,0,0,0,.82-2Z"/><path class="cls-1" d="M116.52,45.39h-3.76V25.29a2.39,2.39,0,0,0-.91-2.06,3.32,3.32,0,0,0-4.07,0,2.42,2.42,0,0,0-.92,2.06v20.1h-3.73V19.33h2.39l.87,1.24A4.63,4.63,0,0,1,108,19.42a6.15,6.15,0,0,1,2.51-.43,5.8,5.8,0,0,1,4.34,1.68,6.19,6.19,0,0,1,1.65,4.5Z"/><path class="cls-1" d="M132.55,39.07a8.25,8.25,0,0,1-.43,2.61,7.11,7.11,0,0,1-1.23,2.2A6,6,0,0,1,129,45.42a5.66,5.66,0,0,1-2.59.57,4.23,4.23,0,0,1-2.54-.65,7.45,7.45,0,0,1-1.34-1.17l-.86,1.25h-2.54V11.88l3.76-1.25v9.58a3,3,0,0,1,1.34-.88,6,6,0,0,1,8.27,6Zm-6.73-16.56a3.14,3.14,0,0,0-2,.72,2.39,2.39,0,0,0-.86,2.06V39.07a3,3,0,0,0,.86,2.39,2.89,2.89,0,0,0,2,.77,3.47,3.47,0,0,0,2.06-.67,2.89,2.89,0,0,0,.91-2.4V25.39a2.38,2.38,0,0,0-.91-2.09,3.32,3.32,0,0,0-2.06-.67"/><path class="cls-1" d="M147.86,39.45a7.24,7.24,0,0,1-.48,2.76A6.11,6.11,0,0,1,146,44.27a5.85,5.85,0,0,1-2,1.27,7.68,7.68,0,0,1-5,0,5.67,5.67,0,0,1-2-1.25,5.79,5.79,0,0,1-1.34-2,7.18,7.18,0,0,1-.51-2.75V25.29a7.21,7.21,0,0,1,.48-2.71A5.67,5.67,0,0,1,139,19.37a8,8,0,0,1,2.56-.4,7,7,0,0,1,2.4.45,5.91,5.91,0,0,1,2.06,1.32,6.1,6.1,0,0,1,1.41,2.13,7.71,7.71,0,0,1,.53,2.92,15.84,15.84,0,0,1-.53,4.44,9.06,9.06,0,0,1-1.63,3.16A11.69,11.69,0,0,1,143,35.78q-1.74,1.11-4.17,2.4v1.27a2.83,2.83,0,0,0,.72,2,2.56,2.56,0,0,0,1.9.69,2.53,2.53,0,0,0,1.84-.72,2.71,2.71,0,0,0,.72-2V39l3.78-1.25Zm-3.55-13.51a3.69,3.69,0,0,0-.81-2.73,2.72,2.72,0,0,0-1.92-.77,2.77,2.77,0,0,0-1.94.72,2.65,2.65,0,0,0-.79,2.06V34a17.11,17.11,0,0,0,2.78-1.6,6.62,6.62,0,0,0,1.65-1.73,6,6,0,0,0,.82-2.08,14.54,14.54,0,0,0,.21-2.64"/><path class="cls-1" d="M157.15,18.92a3,3,0,0,1,2.23.72L158.11,23a1.5,1.5,0,0,0-1.15-.34,2.39,2.39,0,0,0-1.75.84,3,3,0,0,0-.77,2.11V45.34h-3.73v-26h2.39L154,21a4.5,4.5,0,0,1,1.12-1.37,3,3,0,0,1,2-.7"/><path class="cls-1" d="M163.77,45.88h7.63l2.09-3.77h-8.15a1.19,1.19,0,0,1-.91-.57,1.9,1.9,0,0,1-.28-.89,1.83,1.83,0,0,1,.43-1.14,2.69,2.69,0,0,1,1.94-.71,6.92,6.92,0,0,0,4.8-1.89,6.27,6.27,0,0,0,1.41-4.26V24.27a5.82,5.82,0,0,0-5.27-5.3c-.32,0-1,0-1,0h-.66s-.67,0-1,0a5.77,5.77,0,0,0-5.27,5.54,3.64,3.64,0,0,0,0,.66s0,.07,0,.12v7.43a6,6,0,0,0,3.43,5.7,2.67,2.67,0,0,0-1.61.89,1.86,1.86,0,0,0-.48,1.23,2.22,2.22,0,0,0,.31,1.14,1.58,1.58,0,0,0,1,.71A5.93,5.93,0,0,0,159,44.24a4.76,4.76,0,0,0-1.12,3.24,5.12,5.12,0,0,0,1.46,3.79,5.78,5.78,0,0,0,4.15,1.38h4.9l2-3.75h-6.87a2.79,2.79,0,0,1-1.44-.37,1.29,1.29,0,0,1-.58-1.15C161.51,46.38,162.26,45.88,163.77,45.88Zm-.43-21.42a2.44,2.44,0,0,1,.81-1.44,3.16,3.16,0,0,1,2-.66h0a3.14,3.14,0,0,1,2,.66,2.37,2.37,0,0,1,.76,1.22,1.1,1.1,0,0,1,0,.16,4.93,4.93,0,0,1,.06.77l0,7.52a2.37,2.37,0,0,1-.82,2.06,3.21,3.21,0,0,1-4,0,2.38,2.38,0,0,1-.84-2V25.13A3.46,3.46,0,0,1,163.34,24.46Z"/></g><path id="stern" class="cls-2" d="M184,11.42a8.89,8.89,0,1,0,8.79,9,8.88,8.88,0,0,0-8.79-9h0"/><polygon class="cls-1" points="189.66 24.48 184.87 22.39 184.2 27.45 183.31 27.45 182.76 22.39 177.97 24.36 177.44 23.61 181.71 20.31 177.52 16.88 178.07 16.14 182.86 18.54 183.53 13.14 184.42 13.14 184.97 18.54 189.76 16.14 190.29 16.88 186.02 20.21 190.21 23.61 189.66 24.48"/></svg>